<mxfile host="app.diagrams.net" agent="Mozilla/5.0 (Windows NT 10.0; Win64; x64) AppleWebKit/537.36 (KHTML, like Gecko) Chrome/126.0.0.0 YaBrowser/24.7.0.0 Safari/537.36" version="24.7.17">
  <diagram name="Страница — 1" id="oJk5suUYFFJWfB2Dz4Nt">
    <mxGraphModel dx="1002" dy="663" grid="1" gridSize="10" guides="1" tooltips="1" connect="1" arrows="1" fold="1" page="1" pageScale="1" pageWidth="827" pageHeight="1169" math="0" shadow="0">
      <root>
        <mxCell id="0" />
        <mxCell id="1" parent="0" />
        <mxCell id="TFJ1TorfH9dClKmbsR8v-3" value="Person" style="swimlane;fontStyle=1;align=center;verticalAlign=top;childLayout=stackLayout;horizontal=1;startSize=26;horizontalStack=0;resizeParent=1;resizeParentMax=0;resizeLast=0;collapsible=1;marginBottom=0;whiteSpace=wrap;html=1;" parent="1" vertex="1">
          <mxGeometry x="40" y="160" width="230" height="240" as="geometry" />
        </mxCell>
        <mxCell id="TFJ1TorfH9dClKmbsR8v-4" value="+ id: Integer" style="text;strokeColor=none;fillColor=none;align=left;verticalAlign=top;spacingLeft=4;spacingRight=4;overflow=hidden;rotatable=0;points=[[0,0.5],[1,0.5]];portConstraint=eastwest;whiteSpace=wrap;html=1;" parent="TFJ1TorfH9dClKmbsR8v-3" vertex="1">
          <mxGeometry y="26" width="230" height="26" as="geometry" />
        </mxCell>
        <mxCell id="TFJ1TorfH9dClKmbsR8v-5" value="" style="line;strokeWidth=1;fillColor=none;align=left;verticalAlign=middle;spacingTop=-1;spacingLeft=3;spacingRight=3;rotatable=0;labelPosition=right;points=[];portConstraint=eastwest;strokeColor=inherit;" parent="TFJ1TorfH9dClKmbsR8v-3" vertex="1">
          <mxGeometry y="52" width="230" height="8" as="geometry" />
        </mxCell>
        <mxCell id="TFJ1TorfH9dClKmbsR8v-6" value="+ initialize(id: Integer)&lt;div&gt;+ phone_number_regex?(phone_number_value: String): Boolean&lt;br&gt;&lt;/div&gt;&lt;div&gt;+ surname_firstname_lastname_regex?(surname_firstname_lastname_value: String): Boolean&lt;br&gt;&lt;/div&gt;&lt;div&gt;+ telegram_regex?(telegram_value: String): Boolean&lt;br&gt;&lt;/div&gt;&lt;div&gt;+ email_regex?(email_value: String): Boolean&lt;br&gt;&lt;/div&gt;&lt;div&gt;+ git_regex?(git_value: String): Boolean&lt;br&gt;&lt;/div&gt;" style="text;strokeColor=none;fillColor=none;align=left;verticalAlign=top;spacingLeft=4;spacingRight=4;overflow=hidden;rotatable=0;points=[[0,0.5],[1,0.5]];portConstraint=eastwest;whiteSpace=wrap;html=1;" parent="TFJ1TorfH9dClKmbsR8v-3" vertex="1">
          <mxGeometry y="60" width="230" height="180" as="geometry" />
        </mxCell>
        <mxCell id="TFJ1TorfH9dClKmbsR8v-7" value="Student" style="swimlane;fontStyle=1;align=center;verticalAlign=top;childLayout=stackLayout;horizontal=1;startSize=26;horizontalStack=0;resizeParent=1;resizeParentMax=0;resizeLast=0;collapsible=1;marginBottom=0;whiteSpace=wrap;html=1;" parent="1" vertex="1">
          <mxGeometry x="560" y="160" width="240" height="400" as="geometry" />
        </mxCell>
        <mxCell id="TFJ1TorfH9dClKmbsR8v-8" value="+ id: Integer&lt;div&gt;+ surname: String&lt;div&gt;+ firstname: String&lt;div&gt;+ lastname: String&lt;div&gt;+ phone_number: String&lt;div&gt;+ telegram: String&lt;div&gt;+ email: String&lt;div&gt;+ git: String&lt;div&gt;&lt;br&gt;&lt;/div&gt;&lt;/div&gt;&lt;/div&gt;&lt;/div&gt;&lt;/div&gt;&lt;/div&gt;&lt;/div&gt;&lt;/div&gt;" style="text;strokeColor=none;fillColor=none;align=left;verticalAlign=top;spacingLeft=4;spacingRight=4;overflow=hidden;rotatable=0;points=[[0,0.5],[1,0.5]];portConstraint=eastwest;whiteSpace=wrap;html=1;" parent="TFJ1TorfH9dClKmbsR8v-7" vertex="1">
          <mxGeometry y="26" width="240" height="134" as="geometry" />
        </mxCell>
        <mxCell id="TFJ1TorfH9dClKmbsR8v-9" value="" style="line;strokeWidth=1;fillColor=none;align=left;verticalAlign=middle;spacingTop=-1;spacingLeft=3;spacingRight=3;rotatable=0;labelPosition=right;points=[];portConstraint=eastwest;strokeColor=inherit;" parent="TFJ1TorfH9dClKmbsR8v-7" vertex="1">
          <mxGeometry y="160" width="240" height="8" as="geometry" />
        </mxCell>
        <mxCell id="TFJ1TorfH9dClKmbsR8v-10" value="+ initialize(surname: String, firstname: String, lastname: String, id: Integer, phone_number: String, telegram: String, email: String, git: String)&lt;div&gt;+ surname=(surname_value: String)&lt;br&gt;&lt;/div&gt;&lt;div&gt;+ firstname=(firstname_value: String)&lt;br&gt;&lt;/div&gt;&lt;div&gt;+ lastname=(lastname_value: String)&lt;br&gt;&lt;/div&gt;&lt;div&gt;+ git=(git_value: String)&lt;br&gt;&lt;/div&gt;&lt;div&gt;+ validate?(): Boolean&lt;br&gt;&lt;/div&gt;&lt;div&gt;+ set_contacts(phone_number: String, telegram: String, email: String)&lt;br&gt;&lt;/div&gt;&lt;div&gt;+ to_s(): String&lt;br&gt;&lt;/div&gt;&lt;div&gt;+ get_contact(): String&lt;br&gt;&lt;/div&gt;&lt;div&gt;+ get_name(): String&lt;br&gt;&lt;/div&gt;&lt;div&gt;+ getInfo(): String&lt;br&gt;&lt;/div&gt;" style="text;strokeColor=none;fillColor=none;align=left;verticalAlign=top;spacingLeft=4;spacingRight=4;overflow=hidden;rotatable=0;points=[[0,0.5],[1,0.5]];portConstraint=eastwest;whiteSpace=wrap;html=1;" parent="TFJ1TorfH9dClKmbsR8v-7" vertex="1">
          <mxGeometry y="168" width="240" height="232" as="geometry" />
        </mxCell>
        <mxCell id="TFJ1TorfH9dClKmbsR8v-11" value="Student_short" style="swimlane;fontStyle=1;align=center;verticalAlign=top;childLayout=stackLayout;horizontal=1;startSize=26;horizontalStack=0;resizeParent=1;resizeParentMax=0;resizeLast=0;collapsible=1;marginBottom=0;whiteSpace=wrap;html=1;" parent="1" vertex="1">
          <mxGeometry x="160" y="520" width="160" height="160" as="geometry" />
        </mxCell>
        <mxCell id="TFJ1TorfH9dClKmbsR8v-12" value="+ id: Integer&lt;div&gt;+ data: String&lt;/div&gt;&lt;div&gt;+ student: Student&lt;/div&gt;" style="text;strokeColor=none;fillColor=none;align=left;verticalAlign=top;spacingLeft=4;spacingRight=4;overflow=hidden;rotatable=0;points=[[0,0.5],[1,0.5]];portConstraint=eastwest;whiteSpace=wrap;html=1;" parent="TFJ1TorfH9dClKmbsR8v-11" vertex="1">
          <mxGeometry y="26" width="160" height="54" as="geometry" />
        </mxCell>
        <mxCell id="TFJ1TorfH9dClKmbsR8v-13" value="" style="line;strokeWidth=1;fillColor=none;align=left;verticalAlign=middle;spacingTop=-1;spacingLeft=3;spacingRight=3;rotatable=0;labelPosition=right;points=[];portConstraint=eastwest;strokeColor=inherit;" parent="TFJ1TorfH9dClKmbsR8v-11" vertex="1">
          <mxGeometry y="80" width="160" height="8" as="geometry" />
        </mxCell>
        <mxCell id="TFJ1TorfH9dClKmbsR8v-14" value="+ initialize(id: Integer, data: String, student: Student)&lt;div&gt;+ from_string(data: String)&lt;br&gt;&lt;/div&gt;" style="text;strokeColor=none;fillColor=none;align=left;verticalAlign=top;spacingLeft=4;spacingRight=4;overflow=hidden;rotatable=0;points=[[0,0.5],[1,0.5]];portConstraint=eastwest;whiteSpace=wrap;html=1;" parent="TFJ1TorfH9dClKmbsR8v-11" vertex="1">
          <mxGeometry y="88" width="160" height="72" as="geometry" />
        </mxCell>
        <mxCell id="NJRyvVsnE-vtiN1TKBns-1" value="" style="endArrow=block;endSize=16;endFill=0;html=1;rounded=0;exitX=1.008;exitY=1.052;exitDx=0;exitDy=0;exitPerimeter=0;entryX=1.014;entryY=0.776;entryDx=0;entryDy=0;entryPerimeter=0;" edge="1" parent="1" source="TFJ1TorfH9dClKmbsR8v-12" target="TFJ1TorfH9dClKmbsR8v-6">
          <mxGeometry width="160" relative="1" as="geometry">
            <mxPoint x="330" y="410" as="sourcePoint" />
            <mxPoint x="400" y="310" as="targetPoint" />
            <Array as="points">
              <mxPoint x="400" y="603" />
              <mxPoint x="400" y="440" />
              <mxPoint x="400" y="360" />
            </Array>
          </mxGeometry>
        </mxCell>
        <mxCell id="NJRyvVsnE-vtiN1TKBns-2" value="" style="endArrow=block;endSize=16;endFill=0;html=1;rounded=0;entryX=1.01;entryY=0.336;entryDx=0;entryDy=0;entryPerimeter=0;" edge="1" parent="1" target="TFJ1TorfH9dClKmbsR8v-6">
          <mxGeometry width="160" relative="1" as="geometry">
            <mxPoint x="560" y="278.5" as="sourcePoint" />
            <mxPoint x="276" y="281.5" as="targetPoint" />
          </mxGeometry>
        </mxCell>
      </root>
    </mxGraphModel>
  </diagram>
</mxfile>
